<svg xmlns="http://www.w3.org/2000/svg" version="1.1" xmlns:xlink="http://www.w3.org/1999/xlink" xmlns:svgjs="http://svgjs.dev/svgjs" width="1500" height="1500" viewBox="0 0 1500 1500"><rect width="1500" height="1500" fill="#ffffff"></rect><g transform="matrix(0.6666666666666666,0,0,0.6666666666666666,249.39393939393932,638.9770497362138)"><svg viewBox="0 0 396 88" data-background-color="#97978d" preserveAspectRatio="xMidYMid meet" height="333" width="1500" xmlns="http://www.w3.org/2000/svg" xmlns:xlink="http://www.w3.org/1999/xlink"><g id="tight-bounds" transform="matrix(1,0,0,1,0.24000000000003752,0.00909740186119734)"><svg viewBox="0 0 395.5199999999999 87.98180519627759" height="87.98180519627759" width="395.5199999999999"><g><svg viewBox="0 0 679.7486759328309 151.20731085242204" height="87.98180519627759" width="395.5199999999999"><g><rect width="6.382273168069455" height="151.20731085242204" x="261.1388813823807" y="0" fill="#110E38" opacity="1" stroke-width="0" stroke="transparent" fill-opacity="1" class="rect-yte-0" data-fill-palette-color="primary" rx="1%" id="yte-0" data-palette-color="#ffffff"></rect></g><g transform="matrix(1,0,0,1,284.2286759328309,0.3761375891851202)"><svg viewBox="0 0 395.52 150.4550356740518" height="150.4550356740518" width="395.52"><g id="textblocktransform"><svg viewBox="0 0 395.52 150.4550356740518" height="150.4550356740518" width="395.52" id="textblock"><g><svg viewBox="0 0 395.52 150.4550356740518" height="150.4550356740518" width="395.52"><g transform="matrix(1,0,0,1,0,0)"><svg width="395.52" viewBox="0.1 -35.5 270.2 98.3" height="150.4550356740518" data-palette-color="#ffffff"><svg></svg><svg></svg><g class="wordmark-text-0" data-fill-palette-color="primary" id="text-0"><path d="M0.1 0l12.7-31.5h4.1l12.55 31.5h-4.8l-3.45-8.75h-12.95l-3.4 8.75zM11.65-17.85l-2.15 5.45h10.35l-2.1-5.45c-0.567-1.433-1.083-2.817-1.55-4.15-0.467-1.333-0.933-2.7-1.4-4.1v0h-0.1c-0.467 1.4-0.95 2.75-1.45 4.05-0.5 1.3-1.033 2.7-1.6 4.2zM37.3-17.1v17.1h-4.4v-23.5h3.45l0.65 3.25c1.167-1.167 2.39-2.06 3.67-2.68 1.287-0.613 2.763-0.92 4.43-0.92v0c2.4 0 4.283 0.673 5.65 2.02 1.367 1.353 2.05 3.23 2.05 5.63v0 16.2h-4.4v-15.55c0-1.433-0.373-2.577-1.12-3.43-0.753-0.847-1.897-1.27-3.43-1.27v0c-2.333 0-4.517 1.05-6.55 3.15zM75.2-21.55v-13.95h4.4v35.5h-3.7l-0.55-2.6h-0.15c-1.033 1.067-2.073 1.84-3.12 2.32-1.053 0.487-2.38 0.73-3.98 0.73v0c-1.267 0-2.493-0.25-3.68-0.75-1.18-0.5-2.237-1.25-3.17-2.25-0.933-1-1.683-2.26-2.25-3.78-0.567-1.513-0.85-3.303-0.85-5.37v0c0-1.833 0.243-3.5 0.73-5 0.48-1.5 1.17-2.783 2.07-3.85 0.9-1.067 2-1.883 3.3-2.45 1.3-0.567 2.783-0.85 4.45-0.85v0c1.233 0 2.41 0.19 3.53 0.57 1.113 0.387 2.103 0.963 2.97 1.73zM75.2-6.2v-11.65c-1.567-1.767-3.417-2.65-5.55-2.65v0c-0.9 0-1.773 0.157-2.62 0.47-0.853 0.32-1.603 0.83-2.25 1.53-0.653 0.7-1.18 1.6-1.58 2.7-0.4 1.1-0.6 2.417-0.6 3.95v0c0 1.6 0.183 2.957 0.55 4.07 0.367 1.12 0.86 2.037 1.48 2.75 0.613 0.72 1.313 1.247 2.1 1.58 0.78 0.333 1.57 0.5 2.37 0.5v0c2.5 0 4.533-1.083 6.1-3.25zM90.65 0h-4.35v-23.5h3.3l0.75 4.7c0.567-1.5 1.5-2.717 2.8-3.65 1.3-0.933 2.8-1.4 4.5-1.4v0c0.867 0 1.583 0.067 2.15 0.2 0.567 0.133 1.083 0.3 1.55 0.5v0l-0.85 3.85c-0.4-0.2-0.843-0.367-1.33-0.5-0.48-0.133-1.053-0.2-1.72-0.2v0c-0.967 0-1.857 0.167-2.67 0.5-0.82 0.333-1.537 0.833-2.15 1.5-0.62 0.667-1.107 1.49-1.46 2.47-0.347 0.987-0.52 2.113-0.52 3.38v0zM123.8-13.55v2.3h-16.85v0.2c0 2.6 0.707 4.6 2.12 6 1.42 1.4 3.347 2.1 5.78 2.1v0c1.267 0 2.39-0.1 3.37-0.3 0.987-0.2 2.063-0.533 3.23-1v0l0.9 3.25c-0.967 0.433-2.11 0.783-3.43 1.05-1.313 0.267-2.72 0.4-4.22 0.4v0c-1.7 0-3.293-0.233-4.78-0.7-1.48-0.467-2.787-1.193-3.92-2.18-1.133-0.98-2.027-2.237-2.68-3.77-0.647-1.533-0.97-3.367-0.97-5.5v0c0-1.833 0.273-3.5 0.82-5 0.553-1.5 1.33-2.777 2.33-3.83 1-1.047 2.207-1.863 3.62-2.45 1.42-0.58 3.013-0.87 4.78-0.87v0c1.5 0 2.857 0.25 4.07 0.75 1.22 0.5 2.263 1.2 3.13 2.1 0.867 0.9 1.533 1.983 2 3.25 0.467 1.267 0.7 2.667 0.7 4.2zM107.05-14.3l12.2-0.1c0-0.867-0.11-1.673-0.33-2.42-0.213-0.753-0.547-1.413-1-1.98-0.447-0.567-1.02-1.017-1.72-1.35-0.7-0.333-1.55-0.5-2.55-0.5v0c-1.833 0-3.327 0.583-4.48 1.75-1.147 1.167-1.853 2.7-2.12 4.6zM133.15 0l-7.25-23.5h4.7l4 14.8 0.9 5.25h0.2l1.1-5.25 4.05-14.8h4.75l4.15 14.8 1.05 5.25h0.2l1.1-5.25 3.9-14.8h4.5l-7.15 23.5h-5l-4-14.4-1.15-5.8-1.2 5.8-4.1 14.4zM178.95 0v-31.5h4l14.35 19.95c0.533 0.733 1.05 1.483 1.55 2.25 0.5 0.767 0.95 1.517 1.35 2.25v0h0.1c-0.067-1.167-0.117-2.333-0.15-3.5-0.033-1.167-0.05-2.333-0.05-3.5v0-17.45h4.5v31.5h-4l-14.2-19.7c-0.5-0.7-1.017-1.493-1.55-2.38-0.533-0.88-1.033-1.753-1.5-2.62v0h-0.1c0.067 1.4 0.117 2.8 0.15 4.2 0.033 1.4 0.05 2.8 0.05 4.2v0 16.3zM211.6-15.7v0c0-1.3 0.233-2.46 0.7-3.48 0.467-1.013 1.123-1.87 1.97-2.57 0.853-0.7 1.863-1.227 3.03-1.58 1.167-0.347 2.433-0.52 3.8-0.52v0c0.5 0 0.983 0.033 1.45 0.1 0.467 0.067 0.933 0.15 1.4 0.25v0h10.15v3.25h-1.55l-4-0.55c0.633 0.667 1.123 1.433 1.47 2.3 0.353 0.867 0.53 1.783 0.53 2.75v0c0 1.3-0.233 2.457-0.7 3.47-0.467 1.02-1.117 1.88-1.95 2.58-0.833 0.7-1.833 1.223-3 1.57-1.167 0.353-2.433 0.53-3.8 0.53v0c-1.033 0-1.933-0.067-2.7-0.2v0c-0.767 0.267-1.3 0.607-1.6 1.02-0.3 0.42-0.45 0.863-0.45 1.33v0c0 0.767 0.257 1.283 0.77 1.55 0.52 0.267 1.213 0.4 2.08 0.4v0h6.2c2.6 0 4.593 0.59 5.98 1.77 1.38 1.187 2.07 2.797 2.07 4.83v0c0 1.3-0.283 2.467-0.85 3.5-0.567 1.033-1.377 1.917-2.43 2.65-1.047 0.733-2.32 1.293-3.82 1.68-1.5 0.38-3.183 0.57-5.05 0.57v0c-3.4 0-6.11-0.607-8.13-1.82-2.013-1.22-3.02-3.013-3.02-5.38v0c0-1.233 0.39-2.267 1.17-3.1 0.787-0.833 1.813-1.467 3.08-1.9v0c-0.667-0.467-1.167-0.96-1.5-1.48-0.333-0.513-0.5-1.203-0.5-2.07v0c0-1.033 0.307-1.917 0.92-2.65 0.62-0.733 1.463-1.317 2.53-1.75v0c-1.333-0.6-2.377-1.477-3.13-2.63-0.747-1.147-1.12-2.62-1.12-4.42zM224.15 0h-7.2c-1.7 0.767-2.55 1.967-2.55 3.6v0c0 2.933 2.367 4.4 7.1 4.4v0c1.4 0 2.583-0.133 3.55-0.4 0.967-0.267 1.75-0.617 2.35-1.05 0.6-0.433 1.04-0.917 1.32-1.45 0.287-0.533 0.43-1.083 0.43-1.65v0c0-1.4-0.477-2.323-1.43-2.77-0.947-0.453-2.137-0.68-3.57-0.68zM226.1-15.6v0c0-1.767-0.46-3.067-1.38-3.9-0.913-0.833-2.12-1.25-3.62-1.25v0c-1.5 0-2.71 0.417-3.63 1.25-0.913 0.833-1.37 2.067-1.37 3.7v0c0 1.733 0.457 3.007 1.37 3.82 0.92 0.82 2.13 1.23 3.63 1.23v0c1.5 0 2.707-0.4 3.62-1.2 0.92-0.8 1.38-2.017 1.38-3.65z" fill="#110E38" fill-rule="nonzero" stroke="none" stroke-width="1" stroke-linecap="butt" stroke-linejoin="miter" stroke-miterlimit="10" stroke-dasharray="" stroke-dashoffset="0" font-family="none" font-weight="none" font-size="none" text-anchor="none" style="mix-blend-mode: normal" data-fill-palette-color="primary" opacity="1"></path><path transform="translate(0,50.65)" d="M4 0v-31.5h9.9c1.633 0 3.117 0.207 4.45 0.62 1.333 0.42 2.483 1.037 3.45 1.85 0.967 0.82 1.717 1.82 2.25 3 0.533 1.187 0.8 2.547 0.8 4.08v0c0 1.667-0.283 3.107-0.85 4.32-0.567 1.22-1.367 2.23-2.4 3.03-1.033 0.8-2.25 1.4-3.65 1.8-1.4 0.4-2.95 0.6-4.65 0.6v0h-4.7v12.2zM8.6-27.8v11.85h2.85c1.233 0 2.383-0.083 3.45-0.25 1.067-0.167 1.977-0.467 2.73-0.9 0.747-0.433 1.337-1.043 1.77-1.83 0.433-0.78 0.65-1.77 0.65-2.97v0c0-1.1-0.207-2.027-0.62-2.78-0.42-0.747-0.963-1.353-1.63-1.82-0.667-0.467-1.433-0.8-2.3-1-0.867-0.2-1.75-0.3-2.65-0.3v0zM34-17v17h-4.4v-35.5h4.4v15c1.1-0.967 2.317-1.767 3.65-2.4 1.333-0.633 2.8-0.95 4.4-0.95v0c1.3 0 2.433 0.19 3.4 0.57 0.967 0.387 1.76 0.92 2.38 1.6 0.613 0.687 1.08 1.497 1.4 2.43 0.313 0.933 0.47 1.95 0.47 3.05v0 16.2h-4.4v-15.1c0-1.8-0.367-3.11-1.1-3.93-0.733-0.813-1.85-1.22-3.35-1.22v0c-1.133 0-2.273 0.283-3.42 0.85-1.153 0.567-2.297 1.367-3.43 2.4zM78.1-12v0c0 1.967-0.3 3.723-0.9 5.27-0.6 1.553-1.423 2.863-2.47 3.93-1.053 1.067-2.28 1.873-3.68 2.42-1.4 0.553-2.917 0.83-4.55 0.83v0c-1.633 0-3.14-0.26-4.52-0.78-1.387-0.513-2.587-1.28-3.6-2.3-1.02-1.013-1.82-2.263-2.4-3.75-0.587-1.48-0.88-3.187-0.88-5.12v0c0-1.967 0.3-3.717 0.9-5.25 0.6-1.533 1.427-2.827 2.48-3.88 1.047-1.047 2.27-1.847 3.67-2.4 1.4-0.547 2.917-0.82 4.55-0.82v0c1.633 0 3.143 0.25 4.53 0.75 1.38 0.5 2.58 1.25 3.6 2.25 1.013 1 1.813 2.24 2.4 3.72 0.58 1.487 0.87 3.197 0.87 5.13zM73.5-11.75v0c0-1.567-0.2-2.9-0.6-4-0.4-1.1-0.923-2-1.57-2.7-0.653-0.7-1.397-1.21-2.23-1.53-0.833-0.313-1.683-0.47-2.55-0.47v0c-0.867 0-1.717 0.133-2.55 0.4-0.833 0.267-1.567 0.733-2.2 1.4-0.633 0.667-1.14 1.557-1.52 2.67-0.387 1.12-0.58 2.53-0.58 4.23v0c0 1.567 0.2 2.907 0.6 4.02 0.4 1.12 0.927 2.03 1.58 2.73 0.647 0.7 1.387 1.217 2.22 1.55 0.833 0.333 1.683 0.5 2.55 0.5v0c0.867 0 1.717-0.143 2.55-0.43 0.833-0.28 1.567-0.763 2.2-1.45 0.633-0.68 1.143-1.58 1.53-2.7 0.38-1.113 0.57-2.52 0.57-4.22zM95.8-23.5v3.3h-6.9v13.65c0 1.167 0.293 1.95 0.88 2.35 0.58 0.4 1.337 0.6 2.27 0.6v0c0.667 0 1.4-0.077 2.2-0.23 0.8-0.147 1.5-0.32 2.1-0.52v0l0.7 3.35c-0.667 0.267-1.517 0.5-2.55 0.7-1.033 0.2-2.117 0.3-3.25 0.3v0c-2.333 0-4.033-0.51-5.1-1.53-1.067-1.013-1.6-2.487-1.6-4.42v0-14.25h-3.5v-3.3h3.5v-7.5h4.35v7.5zM123-12v0c0 1.967-0.3 3.723-0.9 5.27-0.6 1.553-1.423 2.863-2.47 3.93-1.053 1.067-2.28 1.873-3.68 2.42-1.4 0.553-2.917 0.83-4.55 0.83v0c-1.633 0-3.14-0.26-4.52-0.78-1.387-0.513-2.587-1.28-3.6-2.3-1.02-1.013-1.82-2.263-2.4-3.75-0.587-1.48-0.88-3.187-0.88-5.12v0c0-1.967 0.3-3.717 0.9-5.25 0.6-1.533 1.427-2.827 2.48-3.88 1.047-1.047 2.27-1.847 3.67-2.4 1.4-0.547 2.917-0.82 4.55-0.82v0c1.633 0 3.143 0.25 4.53 0.75 1.38 0.5 2.58 1.25 3.6 2.25 1.013 1 1.813 2.24 2.4 3.72 0.58 1.487 0.87 3.197 0.87 5.13zM118.4-11.75v0c0-1.567-0.2-2.9-0.6-4-0.4-1.1-0.923-2-1.57-2.7-0.653-0.7-1.397-1.21-2.23-1.53-0.833-0.313-1.683-0.47-2.55-0.47v0c-0.867 0-1.717 0.133-2.55 0.4-0.833 0.267-1.567 0.733-2.2 1.4-0.633 0.667-1.14 1.557-1.52 2.67-0.387 1.12-0.58 2.53-0.58 4.23v0c0 1.567 0.2 2.907 0.6 4.02 0.4 1.12 0.927 2.03 1.58 2.73 0.647 0.7 1.387 1.217 2.22 1.55 0.833 0.333 1.683 0.5 2.55 0.5v0c0.867 0 1.717-0.143 2.55-0.43 0.833-0.28 1.567-0.763 2.2-1.45 0.633-0.68 1.143-1.58 1.53-2.7 0.38-1.113 0.57-2.52 0.57-4.22zM128-15.7v0c0-1.3 0.233-2.46 0.7-3.48 0.467-1.013 1.127-1.87 1.98-2.57 0.847-0.7 1.853-1.227 3.02-1.58 1.167-0.347 2.433-0.52 3.8-0.52v0c0.5 0 0.983 0.033 1.45 0.1 0.467 0.067 0.933 0.15 1.4 0.25v0h10.15v3.25h-1.55l-4-0.55c0.633 0.667 1.127 1.433 1.48 2.3 0.347 0.867 0.52 1.783 0.52 2.75v0c0 1.3-0.233 2.457-0.7 3.47-0.467 1.02-1.117 1.88-1.95 2.58-0.833 0.7-1.833 1.223-3 1.57-1.167 0.353-2.433 0.53-3.8 0.53v0c-1.033 0-1.933-0.067-2.7-0.2v0c-0.767 0.267-1.3 0.607-1.6 1.02-0.3 0.42-0.45 0.863-0.45 1.33v0c0 0.767 0.26 1.283 0.78 1.55 0.513 0.267 1.203 0.4 2.07 0.4v0h6.2c2.6 0 4.593 0.59 5.98 1.77 1.38 1.187 2.07 2.797 2.07 4.83v0c0 1.3-0.283 2.467-0.85 3.5-0.567 1.033-1.373 1.917-2.42 2.65-1.053 0.733-2.33 1.293-3.83 1.68-1.5 0.38-3.183 0.57-5.05 0.57v0c-3.4 0-6.107-0.607-8.12-1.82-2.02-1.22-3.03-3.013-3.03-5.38v0c0-1.233 0.393-2.267 1.18-3.1 0.78-0.833 1.803-1.467 3.07-1.9v0c-0.667-0.467-1.167-0.96-1.5-1.48-0.333-0.513-0.5-1.203-0.5-2.07v0c0-1.033 0.31-1.917 0.93-2.65 0.613-0.733 1.453-1.317 2.52-1.75v0c-1.333-0.6-2.373-1.477-3.12-2.63-0.753-1.147-1.13-2.62-1.13-4.42zM140.55 0h-7.2c-1.7 0.767-2.55 1.967-2.55 3.6v0c0 2.933 2.367 4.4 7.1 4.4v0c1.4 0 2.583-0.133 3.55-0.4 0.967-0.267 1.75-0.617 2.35-1.05 0.6-0.433 1.043-0.917 1.33-1.45 0.28-0.533 0.42-1.083 0.42-1.65v0c0-1.4-0.473-2.323-1.42-2.77-0.953-0.453-2.147-0.68-3.58-0.68zM142.5-15.6v0c0-1.767-0.457-3.067-1.37-3.9-0.92-0.833-2.13-1.25-3.63-1.25v0c-1.5 0-2.707 0.417-3.62 1.25-0.92 0.833-1.38 2.067-1.38 3.7v0c0 1.733 0.46 3.007 1.38 3.82 0.913 0.82 2.12 1.23 3.62 1.23v0c1.5 0 2.71-0.4 3.63-1.2 0.913-0.8 1.37-2.017 1.37-3.65zM159.65 0h-4.35v-23.5h3.3l0.75 4.7c0.567-1.5 1.5-2.717 2.8-3.65 1.3-0.933 2.8-1.4 4.5-1.4v0c0.867 0 1.583 0.067 2.15 0.2 0.567 0.133 1.083 0.3 1.55 0.5v0l-0.85 3.85c-0.4-0.2-0.84-0.367-1.32-0.5-0.487-0.133-1.063-0.2-1.73-0.2v0c-0.967 0-1.857 0.167-2.67 0.5-0.82 0.333-1.537 0.833-2.15 1.5-0.62 0.667-1.103 1.49-1.45 2.47-0.353 0.987-0.53 2.113-0.53 3.38v0zM175.2-18.2l-1.7-3.2c0.8-0.4 1.55-0.76 2.25-1.08 0.7-0.313 1.4-0.57 2.1-0.77 0.7-0.2 1.417-0.35 2.15-0.45 0.733-0.1 1.533-0.15 2.4-0.15v0c1.3 0 2.493 0.14 3.58 0.42 1.08 0.287 2.013 0.763 2.8 1.43 0.78 0.667 1.387 1.54 1.82 2.62 0.433 1.087 0.65 2.447 0.65 4.08v0 15.3h-3.65l-0.55-2.6h-0.1c-1.033 1.1-2.167 1.883-3.4 2.35-1.233 0.467-2.6 0.7-4.1 0.7v0c-1.133 0-2.173-0.16-3.12-0.48-0.953-0.313-1.78-0.763-2.48-1.35-0.7-0.58-1.24-1.287-1.62-2.12-0.387-0.833-0.58-1.767-0.58-2.8v0c0-2.467 0.977-4.343 2.93-5.63 1.947-1.28 4.52-1.92 7.72-1.92v0h4.5v-2c0-1.7-0.433-2.86-1.3-3.48-0.867-0.613-2.033-0.92-3.5-0.92v0c-0.867 0-1.857 0.14-2.97 0.42-1.12 0.287-2.397 0.83-3.83 1.63zM186.85-6.05v-4.8l-3.7 0.1c-2.5 0.067-4.273 0.507-5.32 1.32-1.053 0.82-1.58 1.813-1.58 2.98v0c0 0.7 0.117 1.293 0.35 1.78 0.233 0.48 0.543 0.853 0.93 1.12 0.38 0.267 0.83 0.457 1.35 0.57 0.513 0.12 1.053 0.18 1.62 0.18v0c1.1 0 2.217-0.26 3.35-0.78 1.133-0.513 2.133-1.337 3-2.47zM207.45 0.45v0c-1.067 0-2.09-0.15-3.07-0.45-0.987-0.3-1.83-0.7-2.53-1.2v0 12.7h-4.35v-35.35h3.65l0.65 3.05c0.9-0.833 1.917-1.55 3.05-2.15 1.133-0.6 2.467-0.9 4-0.9v0c3.133 0 5.6 1 7.4 3 1.8 2 2.7 4.867 2.7 8.6v0c0 2.2-0.323 4.1-0.97 5.7-0.653 1.6-1.52 2.917-2.6 3.95-1.087 1.033-2.32 1.8-3.7 2.3-1.387 0.5-2.797 0.75-4.23 0.75zM207.9-20.25v0c-1.4 0-2.617 0.34-3.65 1.02-1.033 0.687-1.833 1.38-2.4 2.08v0 12.55c0.767 0.567 1.583 0.983 2.45 1.25 0.867 0.267 1.733 0.4 2.6 0.4v0c0.9 0 1.8-0.16 2.7-0.48 0.9-0.313 1.7-0.837 2.4-1.57 0.7-0.733 1.267-1.683 1.7-2.85 0.433-1.167 0.65-2.6 0.65-4.3v0c0-2.5-0.523-4.473-1.57-5.92-1.053-1.453-2.68-2.18-4.88-2.18zM228.7-17v17h-4.4v-35.5h4.4v15c1.1-0.967 2.317-1.767 3.65-2.4 1.333-0.633 2.8-0.95 4.4-0.95v0c1.3 0 2.433 0.19 3.4 0.57 0.967 0.387 1.76 0.92 2.38 1.6 0.613 0.687 1.08 1.497 1.4 2.43 0.313 0.933 0.47 1.95 0.47 3.05v0 16.2h-4.4v-15.1c0-1.8-0.367-3.11-1.1-3.93-0.733-0.813-1.85-1.22-3.35-1.22v0c-1.133 0-2.273 0.283-3.42 0.85-1.153 0.567-2.297 1.367-3.43 2.4zM257.6 0l-9.55-23.5h4.7l5 13.45 1.7 5.6h0.1l1.7-5.6 4.55-13.45h4.5l-9.05 25.5c-1 2.833-2.257 5.05-3.77 6.65-1.52 1.6-3.33 2.767-5.43 3.5v0l-1.9-3.5c1.567-0.6 2.96-1.467 4.18-2.6 1.213-1.133 2.153-2.7 2.82-4.7v0z" fill="#110E38" fill-rule="nonzero" stroke="none" stroke-width="1" stroke-linecap="butt" stroke-linejoin="miter" stroke-miterlimit="10" stroke-dasharray="" stroke-dashoffset="0" font-family="none" font-weight="none" font-size="none" text-anchor="none" style="mix-blend-mode: normal" data-fill-palette-color="primary" opacity="1"></path></g></svg></g></svg></g></svg></g></svg></g><g transform="matrix(1,0,0,1,0,3.561178536611024)"><svg viewBox="0 0 244.43135999999996 144.0849537792" height="144.0849537792" width="244.43135999999996"><g><svg version="1.0" xmlns="http://www.w3.org/2000/svg" xmlns:xlink="http://www.w3.org/1999/xlink" x="0" y="0" viewBox="0 0 100 58.947" enable-background="new 0 0 100 58.947" xml:space="preserve" id="icon-0" width="244.43135999999996" height="144.0849537792" class="icon-icon-0" data-fill-palette-color="accent"><rect width="21.353" height="13.534" fill="#110E38" data-fill-palette-color="accent"></rect><rect x="52.632" width="27.067" height="13.534" fill="#110E38" data-fill-palette-color="accent"></rect><path d="M0 14.737V58.947H100V14.737zM49.925 55.038C39.793 55.038 31.579 46.824 31.579 36.691 31.579 26.559 39.793 18.345 49.925 18.345S68.271 26.559 68.271 36.691 60.057 55.038 49.925 55.038" fill="#110E38" data-fill-palette-color="accent"></path><path d="M49.925 20.752C58.728 20.752 65.864 27.889 65.864 36.691 65.864 45.495 58.727 52.631 49.925 52.631 41.121 52.631 33.985 45.494 33.985 36.691 33.985 27.889 41.121 20.752 49.925 20.752" fill="#110E38" data-fill-palette-color="accent"></path><path d="M81.418 0.065V13.468H99.935V0.065zM97.96 11.494H83.393V2.04H97.96z" fill="#110E38" data-fill-palette-color="accent"></path><path d="M23.374 0.065V13.468H50.612V0.065zM48.637 11.494H25.348V2.04H48.637z" fill="#110E38" data-fill-palette-color="accent"></path></svg></g></svg></g></svg></g><defs></defs></svg><rect width="395.5199999999999" height="87.98180519627759" fill="none" stroke="none" visibility="hidden"></rect></g></svg></g></svg>